<svg width="49" height="49" viewBox="0 0 49 49" fill="none" xmlns="http://www.w3.org/2000/svg">
<path d="M21.0963 28.8609H39.1954C40.1907 28.8609 41.0036 29.7071 41.0036 30.7649V37.7287C41.0036 38.4339 40.4562 38.998 39.7926 38.998H20.4825C19.819 38.998 19.2715 38.4339 19.2715 37.7287V30.7649C19.2715 29.7071 20.0844 28.8609 21.0798 28.8609H21.0963Z" fill="#050F1E" stroke="white" stroke-width="2" stroke-miterlimit="10"/>
<path d="M20.9138 28.4554L21.7765 26.904L23.7175 23.378C24.1156 22.6552 24.8455 22.2145 25.6418 22.2145H34.683C35.4793 22.2145 36.2093 22.6552 36.6074 23.378L38.5484 26.904L39.411 28.4554" stroke="white" stroke-width="2" stroke-miterlimit="10"/>
<path d="M20.1673 37.9226H22.8051C23.0705 37.9226 23.2861 38.1518 23.2861 38.4339V41.096C23.2861 42.1538 22.4733 43 21.4779 43C20.4825 43 19.6862 42.1538 19.6862 41.096V38.4339C19.6862 38.1518 19.9019 37.9226 20.1673 37.9226Z" fill="white"/>
<path d="M37.8018 37.9226H40.4396C40.705 37.9226 40.9207 38.1518 40.9207 38.4339V41.096C40.9207 42.1538 40.1078 43 39.1124 43C38.117 43 37.3042 42.1538 37.3042 41.096V38.4339C37.3042 38.1518 37.5198 37.9226 37.7853 37.9226H37.8018Z" fill="white"/>
<path d="M41.0036 26.3222H38.5981" stroke="white" stroke-width="2" stroke-miterlimit="10" stroke-linecap="round"/>
<path d="M21.6936 26.3222H19.2881" stroke="white" stroke-width="2" stroke-miterlimit="10" stroke-linecap="round"/>
<path d="M40.4064 32.6513V35.19H37.1548C36.2922 35.19 35.4959 34.714 35.0646 33.9207L34.3678 32.6513H40.4064Z" fill="white"/>
<path d="M19.6862 32.6513V35.19H22.9378C23.8004 35.19 24.5967 34.714 25.028 33.9207L25.7248 32.6513H19.6862Z" fill="white"/>
<path d="M15.738 22.3026C15.738 21.6327 16.2357 21.0862 16.8826 21.0862C17.5296 21.0862 18.0439 21.6327 18.0439 22.3026C18.0439 22.9726 17.5462 23.5191 16.8826 23.5191C16.2191 23.5191 15.738 22.9549 15.738 22.3026ZM16.0034 14.8452H17.7619V20.2576H16.0034V14.8452Z" fill="white"/>
<mask id="mask0_2708_2668" style="mask-type:luminance" maskUnits="userSpaceOnUse" x="6" y="7" width="20" height="22">
<path d="M14.8587 7H19.6862C19.6862 7 26.5169 18.9766 24.9907 19.1705C23.4645 19.3644 22.1539 20.5104 21.6894 21.2508C21.2249 21.9913 20.9139 24.8061 20.9139 24.8061C20.9139 24.8061 18.3736 24.4091 17.4944 24.462C16.5135 25.1763 16.4949 27.1078 16.9946 27.5387C18.1061 28.5965 6.94559 28.4554 6.94559 28.4554L6 19.2351L14.8587 7Z" fill="white"/>
</mask>
<g mask="url(#mask0_2708_2668)">
<path d="M14.9583 11.002L8.60455 22.7081C7.72532 24.3124 8.82022 26.3222 10.5787 26.3222H23.3027C25.0446 26.3222 26.1395 24.3124 25.2769 22.7081L18.9231 11.002C18.0439 9.39766 15.8707 9.39766 14.9915 11.002H14.9583Z" stroke="white" stroke-width="2" stroke-linejoin="round"/>
</g>
</svg>
